<svg xmlns="http://www.w3.org/2000/svg" xmlns:xlink="http://www.w3.org/1999/xlink" id="layer" x="0" y="0" version="1.1" viewBox="0 0 120 120" xml:space="preserve" style="enable-background:new 0 0 120 120"><style type="text/css">.st0,.st1{fill:none;stroke:#3498db;stroke-width:3;stroke-linecap:round;stroke-linejoin:round;stroke-miterlimit:10}.st1{stroke:#bdc5d1}.st2{opacity:.5}.st3{fill:#bdc5d1}.st4{fill:#3498db}.st5{fill:#fff}.st6{opacity:.5;fill:none;stroke:#bdc5d1;stroke-width:3;stroke-linecap:round;stroke-linejoin:round;stroke-miterlimit:10;enable-background:new}</style><path d="M106.13,115" class="st0"/><path d="M19.45,76.1V9.44L23.99,5l4.44,4.44L32.86,5l4.44,4.44L41.74,5l4.44,4.44L50.61,5l4.44,4.44L59.48,5l4.44,4.44	L68.36,5l4.44,4.44L77.23,5l4.44,4.44L86.11,5l4.44,4.44L95.7,5l4.54,4.44v99.58c0,3.3,2.68,5.98,5.98,5.98l0,0	c3.3,0,5.98-2.68,5.98-5.98V11.71h-5.98v96.07" class="st1"/><line x1="106.13" x2="30.8" y1="115" y2="115" class="st1"/><g class="st2"><path d="M84.46,44.01H44.32c-4.23,0-7.53-3.41-7.53-7.53l0,0c0-4.23,3.41-7.53,7.53-7.53h40.14 c4.23,0,7.53,3.41,7.53,7.53l0,0C92.09,40.6,88.69,44.01,84.46,44.01z" class="st3"/></g><g><path d="M79.3,37.3H39.16c-4.23,0-7.53-3.41-7.53-7.53l0,0c0-4.23,3.41-7.53,7.53-7.53H79.3 c4.23,0,7.53,3.41,7.53,7.53l0,0C86.93,33.89,83.53,37.3,79.3,37.3z" class="st4"/></g><g><path d="M71.35,31.42H47.1c-0.93,0-1.65-0.72-1.65-1.65l0,0c0-0.93,0.72-1.65,1.65-1.65h24.25 c0.93,0,1.65,0.72,1.65,1.65l0,0C73,30.59,72.28,31.42,71.35,31.42z" class="st5"/></g><g class="st2"><line x1="7.79" x2="38.02" y1="86.83" y2="86.83" class="st1"/><line x1="7.79" x2="38.02" y1="94.57" y2="94.57" class="st1"/><line x1="7.79" x2="22.75" y1="102.41" y2="102.41" class="st1"/><line x1="32.04" x2="38.02" y1="102.41" y2="102.41" class="st1"/></g><line x1="60" x2="60" y1="91.58" y2="104.17" class="st6"/><line x1="68.15" x2="68.15" y1="87.96" y2="104.17" class="st6"/><line x1="76.41" x2="76.41" y1="90.65" y2="104.17" class="st6"/><line x1="84.66" x2="84.66" y1="82.5" y2="104.17" class="st6"/><polyline points="56.08 86.83 70.11 76.1 75.07 81.98 87.35 71.56" class="st0"/></svg>