<svg xmlns="http://www.w3.org/2000/svg" xmlns:xlink="http://www.w3.org/1999/xlink" id="layer" x="0" y="0" version="1.1" viewBox="0 0 24 24" xml:space="preserve" style="enable-background:new 0 0 24 24"><style type="text/css">.st0{fill:url(#SVGID_1_)}.st1{fill:url(#SVGID_2_)}.st2{opacity:.1;enable-background:new}.st3{fill:url(#XMLID_2_)}.st4{fill:url(#SVGID_3_)}.st5{fill:url(#SVGID_4_)}.st6{fill:url(#SVGID_5_)}</style><g><radialGradient id="SVGID_1_" cx="6.438" cy="26.563" r="21.084" gradientTransform="matrix(1 0 0 -1 0 26)" gradientUnits="userSpaceOnUse"><stop offset="0" style="stop-color:#15bef0"/><stop offset=".268" style="stop-color:#0d91ce"/><stop offset=".53" style="stop-color:#066db1"/><stop offset=".743" style="stop-color:#0257a0"/><stop offset=".878" style="stop-color:#004e9a"/></radialGradient><circle cx="12" cy="12" r="12" class="st0"/><linearGradient id="SVGID_2_" x1="12" x2="12" y1="26" y2="2.271" gradientTransform="matrix(1 0 0 -1 0 26)" gradientUnits="userSpaceOnUse"><stop offset="0" style="stop-color:#000;stop-opacity:0"/><stop offset="1" style="stop-color:#000;stop-opacity:.4"/></linearGradient><circle cx="12" cy="11.86" r="11.86" class="st1"/><path d="M20.67,6.88L20.18,6.8l0.37-0.59c0,0-0.76,0.48-0.76,0.48c-0.13-0.29-0.48-0.17-0.71-0.31 c0.07-0.11,0.1-0.22,0.14-0.31c0.07-0.13,0.3-0.34,0.26-0.46l0.05-0.3l0.08-0.18l-0.51-0.04l-0.28-0.06L18.5,4.9l-0.05,0.6 l-0.13,0.13c0,0-0.01-0.01-0.01-0.01c-0.29-0.22-0.42-0.77-0.78-0.65c-0.36,0.13-0.5-0.2-0.96,0.01c-0.46,0.21-0.36,0.07-0.54,0.29 c-0.18,0.22-0.13,0.56-0.16,0.78c-0.03,0.2-0.17,0.48-0.14,0.69c-0.03-0.01-0.06-0.01-0.09-0.02c-0.22-0.08-0.11-0.3-0.36-0.39 c-0.15-0.05-0.15,0.19-0.09,0.45c-0.01,0.01-0.14,0.13-0.37,0.16c-0.24,0.03-0.25-0.21-0.51-0.17c-0.26,0.04,0.22,0.57,0.48,0.76 c0.25,0.18,0.32,0.64,0.66,0.54c0.15-0.04,0.25-0.02,0.36,0.01c0.19,0.11,0.24,0.31,0.62,0.37c0.19,0.03,0.28,0.05,0.34,0.07 l0.02,0.02l0.23,0.48l0.26-0.68c0.03-0.03,0.05-0.06,0.08-0.09c0.1,0.43,0.24,0.98,0.24,0.98c-0.54,0.05-0.52,0.68-0.89,0.97 c-0.14-0.17-0.3-0.28-0.42-0.39c-0.17-0.18-0.38-0.67-0.59-0.67L15.24,8.9l-0.24-0.23l-0.33,0.79l-0.24,0.42l-0.4,0.47l0.94,0.41 l0.14,0.28c0,0-0.01,0.01-0.02,0.01c-0.51,0.35-1.47,0.26-1.46,0.91c0.01,0.65-0.59,0.69-0.5,1.54c0.09,0.85-0.08,0.61,0.17,1.02 s0.84,0.51,1.17,0.68c0.3,0.15,0.68,0.53,1.04,0.6c-0.03,0.04-0.05,0.08-0.08,0.13c-0.26,0.31-0.55,0.02-0.83,0.37 c-0.17,0.21,0.22,0.34,0.67,0.39c0.01,0.02,0.13,0.3,0.06,0.69c-0.07,0.4-0.47,0.29-0.54,0.72c-0.07,0.44,1.04-0.05,1.47-0.36 c0.43-0.31,1.2-0.16,1.22-0.78c0.01-0.26,0.1-0.41,0.21-0.57c0.29-0.25,0.63-0.21,0.93-0.8c0.15-0.3,0.24-0.42,0.29-0.5l0.04-0.01 l0.89-0.11l-0.96-0.78c-0.11-0.21-0.25-0.39-0.33-0.55c-0.08-0.16-0.14-0.4-0.22-0.62c0.12-0.03,0.24-0.1,0.36-0.29 c0.32-0.54,0.6-0.4,0.98-1.12c0.38-0.73,0.34-0.48,0.43-0.89s-0.1-0.68-0.17-0.92c-0.06-0.24-0.01-0.77-0.19-0.87l-0.28-0.43 l0.03-0.13c0.21-0.04,0.33-0.18,0.44-0.25c0.12-0.08,0.43-0.15,0.45-0.27l0.19-0.23l0.21-0.02l0.01-0.33l0.11-0.3L20.67,6.88z M17.49,8.07c0.01-0.01,0.01-0.02,0.02-0.02c0.07-0.08,0.2-0.15,0.31-0.24c0.04,0.06,0.1,0.12,0.23,0.14 c0.12,0.02,0.19,0.06,0.26,0.1l-0.33,0.61L17.49,8.07z" class="st2"/><radialGradient id="XMLID_2_" cx="-550.46" cy="1176.626" r="16.649" gradientTransform="matrix(-0.7854 0.6189 0.6327 0.8029 -1159.168 -598.5566)" gradientUnits="userSpaceOnUse"><stop offset="0" style="stop-color:#fff203"/><stop offset=".298" style="stop-color:#fbc40d"/><stop offset=".776" style="stop-color:#f47e1c"/><stop offset="1" style="stop-color:#f26322"/></radialGradient><path id="XMLID_1317_" d="M24,11.98C24,18.61,18.63,24,12,24S0,18.61,0,11.98c0-2.13,0.56-4.13,1.53-5.86 C0.92,5.24,0.7,3.51,2.09,2.07c0,0.55,0.33,1.5,0.71,2.21C3.1,4.84,3.42,5.25,3.65,5.2C4.17,5.07,6,5.07,6.26,5.2 c0.43-0.55,1.47-2.09,3.13-2.09C8.46,4.04,5.8,7.28,10.43,7.28c0.52,0,1.04,0,1.04,0L8.35,9.37c0,0,0.35,0.69,0,1.04 c-0.4-0.4-2.09,0.43-2.09,1.57c0,1.14,1.21,2.61,3.65,2.61s1.83-1.04,3.13-1.04s1.57,1.04,1.57,1.04c-1.79,0-3.1,2.09-5.22,2.09 c1.04,0.77,1.73,1.04,3.13,1.04c3.45,0,6.26-2.81,6.26-6.26c0-1.4-0.46-2.68-1.23-3.73c1.4,1.04,2.34,2.65,2.5,4.48 c0.19-0.73,0.29-1.51,0.29-2.32c0-3.13-1.25-7.33-3.56-8.91C21.04,2.83,24,7.05,24,11.98z" class="st3"/><path d="M6.26,11.98c0-1.14,1.69-1.96,2.09-1.57c0.29-0.29,0.11-0.8,0.03-0.98C8.36,9.55,8.32,9.65,8.23,9.73 c-0.41-0.41-2.15,0.44-2.15,1.61c0,0.27,0.07,0.57,0.21,0.85C6.28,12.13,6.26,12.05,6.26,11.98z" class="st2"/><linearGradient id="SVGID_3_" x1="14.86" x2="22.049" y1="20.881" y2="17.529" gradientTransform="matrix(1 0 0 -1 0 26)" gradientUnits="userSpaceOnUse"><stop offset="0" style="stop-color:#fff;stop-opacity:.5"/><stop offset="1" style="stop-color:#fff;stop-opacity:.2"/></linearGradient><path d="M20.35,9.89c0,0.44-0.09,1.68-0.29,2.32c0.02,0.13,0.05,0.27,0.06,0.4c0.19-0.75,0.5-2.59,0.5-3.42 c0-2.27-0.64-5.07-1.84-7.11c-0.62-0.43-1.28-0.8-1.98-1.11C19.1,2.57,20.35,6.76,20.35,9.89z" class="st4"/><linearGradient id="SVGID_4_" x1="16.585" x2="19.489" y1="16.195" y2="14.84" gradientTransform="matrix(1 0 0 -1 0 26)" gradientUnits="userSpaceOnUse"><stop offset="0" style="stop-color:#fff;stop-opacity:.5"/><stop offset="1" style="stop-color:#fff;stop-opacity:.2"/></linearGradient><path d="M17.55,7.73c0.77,1.04,1.23,2.33,1.23,3.73c0,0.62-0.09,1.21-0.26,1.78c0.3-0.75,0.48-1.57,0.48-2.42 c0-0.69-0.11-1.35-0.32-1.98C18.35,8.42,17.98,8.05,17.55,7.73z" class="st5"/><path d="M14.61,14.59c0,0-0.06-0.25-0.28-0.5c-1.67,0.25-3.51,2.17-5.55,2.17C9,16.42,9.2,16.56,9.4,16.68 C11.22,16.76,12.97,14.59,14.61,14.59z" class="st2"/><path d="M2.2,2.75C2.14,2.5,2.09,2.26,2.09,2.07c-0.04,0.04-0.06,0.08-0.1,0.12C2.05,2.37,2.12,2.57,2.2,2.75z" class="st2"/><path d="M1.18,5.35C1.19,5.33,1.19,5.31,1.2,5.3c-0.02-0.03-0.04-0.07-0.06-0.1C1.15,5.25,1.16,5.3,1.18,5.35z" class="st2"/><path d="M12,23.73c-3.83,0-7.3-1.75-9.57-4.49C4.62,22.11,8.11,24,12,24s7.35-1.85,9.55-4.73 C19.28,22.01,15.83,23.73,12,23.73z" class="st2"/><path d="M10.3,7.28L8.23,8.66c0,0,0.18,0.35,0.16,0.69l3.09-2.06c0,0-0.52,0-1.04,0C10.39,7.28,10.35,7.28,10.3,7.28z" class="st2"/><path d="M7.82,6.18C7.66,4.96,8.91,3.6,9.39,3.11c-0.37,0-0.71,0.09-1.02,0.21C7.83,4.09,7.42,5.53,7.82,6.18z" class="st2"/><linearGradient id="SVGID_5_" x1="-.14" x2="22.875" y1="19.67" y2="8.938" gradientTransform="matrix(1 0 0 -1 0 26)" gradientUnits="userSpaceOnUse"><stop offset="0" style="stop-color:#fff;stop-opacity:.2"/><stop offset="1" style="stop-color:#fff;stop-opacity:0"/></linearGradient><path d="M16.79,0.98c0.04,0.03,0.08,0.06,0.11,0.09C15.41,0.39,13.75,0,12,0C8.31,0,5.01,1.69,2.83,4.34 C2.82,4.32,2.81,4.3,2.8,4.28C2.42,3.57,2.09,2.62,2.09,2.07C0.7,3.51,0.92,5.24,1.53,6.11C0.56,7.85,0,9.85,0,11.98 C0,18.61,5.37,24,12,24s12-5.39,12-12.02C24,7.05,21.04,2.83,16.79,0.98z" class="st6"/></g></svg>