<svg xmlns="http://www.w3.org/2000/svg" xmlns:xlink="http://www.w3.org/1999/xlink" id="layer" x="0" y="0" version="1.1" viewBox="0 0 24 24" xml:space="preserve" style="enable-background:new 0 0 24 24"><style type="text/css">.st0{fill:#f44336}.st1{fill:#00b060}.st2{fill:#ffc107}.st3{fill:#2196f3}.st4{fill:url(#SVGID_1_)}.st5{fill:url(#SVGID_2_)}.st6{fill:url(#SVGID_3_)}.st7{fill:url(#XMLID_2_)}</style><g><path d="M7,12c0-2.76,2.24-5,5-5c0.77,0,1.49,0.19,2.14,0.5h8.98C21.34,3.1,17.03,0,12,0C8.15,0,4.73,1.82,2.53,4.64 l4.51,7.78C7.03,12.28,7,12.14,7,12z" class="st0"/><path d="M12,17c-2.62,0-4.74-2.02-4.96-4.58L2.53,4.64C0.95,6.68,0,9.22,0,12c0,6.07,4.51,11.08,10.37,11.88l4.45-7.75 C14.02,16.68,13.05,17,12,17z" class="st1"/><path d="M14.14,7.5C15.83,8.3,17,10.01,17,12c0,1.71-0.86,3.23-2.18,4.13l-4.45,7.75C10.9,23.95,11.45,24,12,24 c6.63,0,12-5.37,12-12c0-1.59-0.32-3.11-0.88-4.5H14.14z" class="st2"/><circle id="XMLID_1302_" cx="12" cy="12" r="4" class="st3"/><linearGradient id="SVGID_1_" x1="16.387" x2="20.875" y1="20.744" y2="16.256" gradientTransform="matrix(1 0 0 -1 0 26)" gradientUnits="userSpaceOnUse"><stop offset="0" style="stop-color:#000;stop-opacity:.1"/><stop offset="1" style="stop-color:#000;stop-opacity:0"/></linearGradient><path d="M16.46,9.76l6.66-2.26h-8.98C15.14,7.98,15.96,8.78,16.46,9.76z" class="st4"/><linearGradient id="SVGID_2_" x1="1.884" x2="8.015" y1="20.721" y2="14.59" gradientTransform="matrix(1 0 0 -1 0 26)" gradientUnits="userSpaceOnUse"><stop offset="0" style="stop-color:#000;stop-opacity:.1"/><stop offset="1" style="stop-color:#000;stop-opacity:0"/></linearGradient><path d="M7.83,9.26L2.54,4.62l4.49,7.77C6.94,11.29,7.23,10.19,7.83,9.26z" class="st5"/><linearGradient id="SVGID_3_" x1="10.639" x2="13.403" y1="7.949" y2="5.186" gradientTransform="matrix(1 0 0 -1 0 26)" gradientUnits="userSpaceOnUse"><stop offset="0" style="stop-color:#000;stop-opacity:.1"/><stop offset="1" style="stop-color:#000;stop-opacity:0"/></linearGradient><path d="M11.71,16.98l-1.37,6.9l4.49-7.77C13.91,16.73,12.81,17.04,11.71,16.98z" class="st6"/><linearGradient id="XMLID_2_" x1="1.122" x2="22.878" y1="19.073" y2="8.927" gradientTransform="matrix(1 0 0 -1 0 26)" gradientUnits="userSpaceOnUse"><stop offset="0" style="stop-color:#fff;stop-opacity:.2"/><stop offset="1" style="stop-color:#fff;stop-opacity:0"/></linearGradient><circle id="XMLID_1304_" cx="12" cy="12" r="12" class="st7"/></g></svg>