<svg xmlns="http://www.w3.org/2000/svg" xmlns:xlink="http://www.w3.org/1999/xlink" style="enable-background:new 0 0 256 256" id="layer" x="0" y="0" version="1.1" viewBox="0 0 256 256" xml:space="preserve"><style type="text/css">.st0{fill:#e2761b;stroke:#e2761b;stroke-linecap:round;stroke-linejoin:round}.st1{fill:#e4761b;stroke:#e4761b}.st1,.st2,.st3,.st4,.st5,.st6,.st7,.st8,.st9{stroke-linecap:round;stroke-linejoin:round}.st2{fill:#d7c1b3;stroke:#d7c1b3}.st3{fill:#233447;stroke:#233447}.st4{fill:#cd6116;stroke:#cd6116}.st5{fill:#e4751f;stroke:#e4751f}.st6{fill:#f6851b;stroke:#f6851b}.st7{fill:#c0ad9e;stroke:#c0ad9e}.st8{fill:#161616;stroke:#161616}.st9{fill:#763d16;stroke:#763d16}</style><polygon points="243.25 9.34 143.36 83.53 161.83 39.76" class="st0"/><g><polygon points="12.65 9.34 111.74 84.23 94.17 39.76" class="st1"/><polygon points="207.31 181.31 180.71 222.07 237.63 237.73 253.99 182.21" class="st1"/><polygon points="2.11 182.21 18.37 237.73 75.29 222.07 48.69 181.31" class="st1"/><polygon points="72.08 112.44 56.22 136.43 112.74 138.94 110.73 78.21" class="st1"/><polygon points="183.82 112.44 144.67 77.5 143.36 138.94 199.78 136.43" class="st1"/><polygon points="75.29 222.07 109.23 205.5 79.91 182.61" class="st1"/><polygon points="146.67 205.5 180.71 222.07 175.99 182.61" class="st1"/></g><g><polygon points="180.71 222.07 146.67 205.5 149.38 227.69 149.08 237.03" class="st2"/><polygon points="75.29 222.07 106.92 237.03 106.72 227.69 109.23 205.5" class="st2"/></g><polygon points="107.42 167.96 79.11 159.62 99.09 150.49" class="st3"/><polygon points="148.48 167.96 156.81 150.49 176.89 159.62" class="st3"/><g><polygon points="75.29 222.07 80.11 181.31 48.69 182.21" class="st4"/><polygon points="175.89 181.31 180.71 222.07 207.31 182.21" class="st4"/><polygon points="199.78 136.43 143.36 138.94 148.58 167.96 156.91 150.49 176.99 159.62" class="st4"/><polygon points="79.11 159.62 99.19 150.49 107.42 167.96 112.74 138.94 56.22 136.43" class="st4"/></g><g><polygon points="56.22 136.43 79.91 182.61 79.11 159.62" class="st5"/><polygon points="176.99 159.62 175.99 182.61 199.78 136.43" class="st5"/><polygon points="112.74 138.94 107.42 167.96 114.05 202.19 115.55 157.11" class="st5"/><polygon points="143.36 138.94 140.65 157.01 141.85 202.19 148.58 167.96" class="st5"/></g><polygon points="148.58 167.96 141.85 202.19 146.67 205.5 175.99 182.61 176.99 159.62" class="st6"/><polygon points="79.11 159.62 79.91 182.61 109.23 205.5 114.05 202.19 107.42 167.96" class="st6"/><polygon points="149.08 237.03 149.38 227.69 146.87 225.48 109.03 225.48 106.72 227.69 106.92 237.03 75.29 222.07 86.34 231.1 108.72 246.66 147.17 246.66 169.66 231.1 180.71 222.07" class="st7"/><polygon points="146.67 205.5 141.85 202.19 114.05 202.19 109.23 205.5 106.72 227.69 109.03 225.48 146.87 225.48 149.38 227.69" class="st8"/><g><polygon points="247.47 88.35 256 47.39 243.25 9.34 146.67 81.02 183.82 112.44 236.32 127.8 247.97 114.25 242.95 110.63 250.98 103.3 244.76 98.48 252.79 92.36" class="st9"/><polygon points="0 47.39 8.53 88.35 3.11 92.36 11.14 98.48 5.02 103.3 13.05 110.63 8.03 114.25 19.58 127.8 72.08 112.44 109.23 81.02 12.65 9.34" class="st9"/></g><polygon points="236.32 127.8 183.82 112.44 199.78 136.43 175.99 182.61 207.31 182.21 253.99 182.21" class="st6"/><polygon points="72.08 112.44 19.58 127.8 2.11 182.21 48.69 182.21 79.91 182.61 56.22 136.43" class="st6"/><polygon points="143.36 138.94 146.67 81.02 161.93 39.76 94.17 39.76 109.23 81.02 112.74 138.94 113.95 157.21 114.05 202.19 141.85 202.19 142.05 157.21" class="st6"/></svg>