<svg xmlns="http://www.w3.org/2000/svg" xmlns:xlink="http://www.w3.org/1999/xlink" id="layer" x="0" y="0" version="1.1" viewBox="0 0 1000 1000" xml:space="preserve" style="enable-background:new 0 0 1000 1000"><style type="text/css">.st0{fill:url(#Oval_1_)}.st1{fill:#c8daea}.st2{fill:#a9c9dd}.st3{fill:url(#SVGID_1_)}</style><g id="Telegram"><g><linearGradient id="Oval_1_" x1="14.449" x2="9.241" y1="997.728" y2="985.576" gradientTransform="matrix(48 0 0 -48 -47 48049)" gradientUnits="userSpaceOnUse"><stop offset="0" style="stop-color:#37aee2"/><stop offset="1" style="stop-color:#1e96c8"/></linearGradient><circle id="Oval" cx="500" cy="500" r="500" class="st0"/><path id="Shape" d="M408.34,729.16c-16.2,0-13.44-6.12-19.03-21.53l-47.64-156.77l366.66-217.52" class="st1"/><path d="M408.34,729.16c12.5,0,18.02-5.72,25-12.5L500,651.84l-83.16-50.15" class="st2"/><linearGradient id="SVGID_1_" x1="20.316" x2="23.123" y1="978.555" y2="970.94" gradientTransform="matrix(26.0985 0 0 -21.8899 -15.3148 21927.2422)" gradientUnits="userSpaceOnUse"><stop offset="0" style="stop-color:#eff7fc"/><stop offset="1" style="stop-color:#fff"/></linearGradient><path d="M416.84,601.71l201.5,148.87c22.99,12.69,39.59,6.12,45.31-21.35l82.02-386.51 c8.4-33.66-12.84-48.94-34.83-38.95L229.22,489.48c-32.87,13.19-32.69,31.52-5.99,39.7l123.59,38.58l286.14-180.52 c13.51-8.19,25.91-3.79,15.73,5.24" class="st3"/></g></g></svg>