<svg xmlns="http://www.w3.org/2000/svg" xmlns:xlink="http://www.w3.org/1999/xlink" id="layer1" x="0" y="0" version="1.1" viewBox="0 0 320 320" xml:space="preserve" style="enable-background:new 0 0 320 320"><g id="group"><g><rect width="10" height="10" x="15" y="15"/></g><g><rect width="10" height="10" x="15" y="25"/></g><g><rect width="10" height="10" x="15" y="35"/></g><g><rect width="10" height="10" x="15" y="45"/></g><g><rect width="10" height="10" x="15" y="55"/></g><g><rect width="10" height="10" x="15" y="65"/></g><g><rect width="10" height="10" x="15" y="75"/></g><g><rect width="10" height="10" x="15" y="95"/></g><g><rect width="10" height="10" x="15" y="125"/></g><g><rect width="10" height="10" x="15" y="145"/></g><g><rect width="10" height="10" x="15" y="175"/></g><g><rect width="10" height="10" x="15" y="195"/></g><g><rect width="10" height="10" x="15" y="215"/></g><g><rect width="10" height="10" x="15" y="235"/></g><g><rect width="10" height="10" x="15" y="245"/></g><g><rect width="10" height="10" x="15" y="255"/></g><g><rect width="10" height="10" x="15" y="265"/></g><g><rect width="10" height="10" x="15" y="275"/></g><g><rect width="10" height="10" x="15" y="285"/></g><g><rect width="10" height="10" x="15" y="295"/></g><g><rect width="10" height="10" x="25" y="15"/></g><g><rect width="10" height="10" x="25" y="75"/></g><g><rect width="10" height="10" x="25" y="95"/></g><g><rect width="10" height="10" x="25" y="105"/></g><g><rect width="10" height="10" x="25" y="125"/></g><g><rect width="10" height="10" x="25" y="135"/></g><g><rect width="10" height="10" x="25" y="175"/></g><g><rect width="10" height="10" x="25" y="185"/></g><g><rect width="10" height="10" x="25" y="205"/></g><g><rect width="10" height="10" x="25" y="235"/></g><g><rect width="10" height="10" x="25" y="295"/></g><g><rect width="10" height="10" x="35" y="15"/></g><g><rect width="10" height="10" x="35" y="35"/></g><g><rect width="10" height="10" x="35" y="45"/></g><g><rect width="10" height="10" x="35" y="55"/></g><g><rect width="10" height="10" x="35" y="75"/></g><g><rect width="10" height="10" x="35" y="95"/></g><g><rect width="10" height="10" x="35" y="105"/></g><g><rect width="10" height="10" x="35" y="125"/></g><g><rect width="10" height="10" x="35" y="165"/></g><g><rect width="10" height="10" x="35" y="205"/></g><g><rect width="10" height="10" x="35" y="215"/></g><g><rect width="10" height="10" x="35" y="235"/></g><g><rect width="10" height="10" x="35" y="255"/></g><g><rect width="10" height="10" x="35" y="265"/></g><g><rect width="10" height="10" x="35" y="275"/></g><g><rect width="10" height="10" x="35" y="295"/></g><g><rect width="10" height="10" x="45" y="15"/></g><g><rect width="10" height="10" x="45" y="35"/></g><g><rect width="10" height="10" x="45" y="45"/></g><g><rect width="10" height="10" x="45" y="55"/></g><g><rect width="10" height="10" x="45" y="75"/></g><g><rect width="10" height="10" x="45" y="105"/></g><g><rect width="10" height="10" x="45" y="115"/></g><g><rect width="10" height="10" x="45" y="145"/></g><g><rect width="10" height="10" x="45" y="165"/></g><g><rect width="10" height="10" x="45" y="185"/></g><g><rect width="10" height="10" x="45" y="215"/></g><g><rect width="10" height="10" x="45" y="235"/></g><g><rect width="10" height="10" x="45" y="255"/></g><g><rect width="10" height="10" x="45" y="265"/></g><g><rect width="10" height="10" x="45" y="275"/></g><g><rect width="10" height="10" x="45" y="295"/></g><g><rect width="10" height="10" x="55" y="15"/></g><g><rect width="10" height="10" x="55" y="35"/></g><g><rect width="10" height="10" x="55" y="45"/></g><g><rect width="10" height="10" x="55" y="55"/></g><g><rect width="10" height="10" x="55" y="75"/></g><g><rect width="10" height="10" x="55" y="95"/></g><g><rect width="10" height="10" x="55" y="105"/></g><g><rect width="10" height="10" x="55" y="115"/></g><g><rect width="10" height="10" x="55" y="125"/></g><g><rect width="10" height="10" x="55" y="145"/></g><g><rect width="10" height="10" x="55" y="165"/></g><g><rect width="10" height="10" x="55" y="215"/></g><g><rect width="10" height="10" x="55" y="235"/></g><g><rect width="10" height="10" x="55" y="255"/></g><g><rect width="10" height="10" x="55" y="265"/></g><g><rect width="10" height="10" x="55" y="275"/></g><g><rect width="10" height="10" x="55" y="295"/></g><g><rect width="10" height="10" x="65" y="15"/></g><g><rect width="10" height="10" x="65" y="75"/></g><g><rect width="10" height="10" x="65" y="95"/></g><g><rect width="10" height="10" x="65" y="115"/></g><g><rect width="10" height="10" x="65" y="135"/></g><g><rect width="10" height="10" x="65" y="145"/></g><g><rect width="10" height="10" x="65" y="155"/></g><g><rect width="10" height="10" x="65" y="165"/></g><g><rect width="10" height="10" x="65" y="185"/></g><g><rect width="10" height="10" x="65" y="205"/></g><g><rect width="10" height="10" x="65" y="235"/></g><g><rect width="10" height="10" x="65" y="295"/></g><g><rect width="10" height="10" x="75" y="15"/></g><g><rect width="10" height="10" x="75" y="25"/></g><g><rect width="10" height="10" x="75" y="35"/></g><g><rect width="10" height="10" x="75" y="45"/></g><g><rect width="10" height="10" x="75" y="55"/></g><g><rect width="10" height="10" x="75" y="65"/></g><g><rect width="10" height="10" x="75" y="75"/></g><g><rect width="10" height="10" x="75" y="95"/></g><g><rect width="10" height="10" x="75" y="115"/></g><g><rect width="10" height="10" x="75" y="135"/></g><g><rect width="10" height="10" x="75" y="155"/></g><g><rect width="10" height="10" x="75" y="175"/></g><g><rect width="10" height="10" x="75" y="195"/></g><g><rect width="10" height="10" x="75" y="215"/></g><g><rect width="10" height="10" x="75" y="235"/></g><g><rect width="10" height="10" x="75" y="245"/></g><g><rect width="10" height="10" x="75" y="255"/></g><g><rect width="10" height="10" x="75" y="265"/></g><g><rect width="10" height="10" x="75" y="275"/></g><g><rect width="10" height="10" x="75" y="285"/></g><g><rect width="10" height="10" x="75" y="295"/></g><g><rect width="10" height="10" x="85" y="95"/></g><g><rect width="10" height="10" x="85" y="115"/></g><g><rect width="10" height="10" x="85" y="175"/></g><g><rect width="10" height="10" x="85" y="185"/></g><g><rect width="10" height="10" x="85" y="195"/></g><g><rect width="10" height="10" x="85" y="205"/></g><g><rect width="10" height="10" x="85" y="215"/></g><g><rect width="10" height="10" x="95" y="35"/></g><g><rect width="10" height="10" x="95" y="75"/></g><g><rect width="10" height="10" x="95" y="85"/></g><g><rect width="10" height="10" x="95" y="95"/></g><g><rect width="10" height="10" x="95" y="105"/></g><g><rect width="10" height="10" x="95" y="115"/></g><g><rect width="10" height="10" x="95" y="145"/></g><g><rect width="10" height="10" x="95" y="175"/></g><g><rect width="10" height="10" x="95" y="195"/></g><g><rect width="10" height="10" x="95" y="205"/></g><g><rect width="10" height="10" x="95" y="215"/></g><g><rect width="10" height="10" x="95" y="225"/></g><g><rect width="10" height="10" x="95" y="235"/></g><g><rect width="10" height="10" x="95" y="245"/></g><g><rect width="10" height="10" x="95" y="255"/></g><g><rect width="10" height="10" x="95" y="275"/></g><g><rect width="10" height="10" x="95" y="285"/></g><g><rect width="10" height="10" x="95" y="295"/></g><g><rect width="10" height="10" x="105" y="25"/></g><g><rect width="10" height="10" x="105" y="45"/></g><g><rect width="10" height="10" x="105" y="55"/></g><g><rect width="10" height="10" x="105" y="105"/></g><g><rect width="10" height="10" x="105" y="125"/></g><g><rect width="10" height="10" x="105" y="175"/></g><g><rect width="10" height="10" x="105" y="185"/></g><g><rect width="10" height="10" x="105" y="195"/></g><g><rect width="10" height="10" x="105" y="245"/></g><g><rect width="10" height="10" x="105" y="255"/></g><g><rect width="10" height="10" x="115" y="15"/></g><g><rect width="10" height="10" x="115" y="65"/></g><g><rect width="10" height="10" x="115" y="75"/></g><g><rect width="10" height="10" x="115" y="115"/></g><g><rect width="10" height="10" x="115" y="125"/></g><g><rect width="10" height="10" x="115" y="135"/></g><g><rect width="10" height="10" x="115" y="145"/></g><g><rect width="10" height="10" x="115" y="175"/></g><g><rect width="10" height="10" x="115" y="195"/></g><g><rect width="10" height="10" x="115" y="205"/></g><g><rect width="10" height="10" x="115" y="215"/></g><g><rect width="10" height="10" x="115" y="265"/></g><g><rect width="10" height="10" x="115" y="275"/></g><g><rect width="10" height="10" x="115" y="285"/></g><g><rect width="10" height="10" x="115" y="295"/></g><g><rect width="10" height="10" x="125" y="35"/></g><g><rect width="10" height="10" x="125" y="65"/></g><g><rect width="10" height="10" x="125" y="85"/></g><g><rect width="10" height="10" x="125" y="105"/></g><g><rect width="10" height="10" x="125" y="115"/></g><g><rect width="10" height="10" x="125" y="135"/></g><g><rect width="10" height="10" x="125" y="145"/></g><g><rect width="10" height="10" x="125" y="165"/></g><g><rect width="10" height="10" x="125" y="185"/></g><g><rect width="10" height="10" x="125" y="195"/></g><g><rect width="10" height="10" x="125" y="215"/></g><g><rect width="10" height="10" x="125" y="225"/></g><g><rect width="10" height="10" x="125" y="245"/></g><g><rect width="10" height="10" x="125" y="265"/></g><g><rect width="10" height="10" x="125" y="275"/></g><g><rect width="10" height="10" x="125" y="295"/></g><g><rect width="10" height="10" x="135" y="45"/></g><g><rect width="10" height="10" x="135" y="55"/></g><g><rect width="10" height="10" x="135" y="65"/></g><g><rect width="10" height="10" x="135" y="75"/></g><g><rect width="10" height="10" x="135" y="95"/></g><g><rect width="10" height="10" x="135" y="105"/></g><g><rect width="10" height="10" x="135" y="115"/></g><g><rect width="10" height="10" x="135" y="125"/></g><g><rect width="10" height="10" x="135" y="175"/></g><g><rect width="10" height="10" x="135" y="185"/></g><g><rect width="10" height="10" x="135" y="195"/></g><g><rect width="10" height="10" x="135" y="205"/></g><g><rect width="10" height="10" x="135" y="255"/></g><g><rect width="10" height="10" x="135" y="265"/></g><g><rect width="10" height="10" x="135" y="275"/></g><g><rect width="10" height="10" x="135" y="285"/></g><g><rect width="10" height="10" x="145" y="25"/></g><g><rect width="10" height="10" x="145" y="35"/></g><g><rect width="10" height="10" x="145" y="45"/></g><g><rect width="10" height="10" x="145" y="85"/></g><g><rect width="10" height="10" x="145" y="95"/></g><g><rect width="10" height="10" x="145" y="115"/></g><g><rect width="10" height="10" x="145" y="185"/></g><g><rect width="10" height="10" x="145" y="205"/></g><g><rect width="10" height="10" x="145" y="235"/></g><g><rect width="10" height="10" x="145" y="265"/></g><g><rect width="10" height="10" x="145" y="285"/></g><g><rect width="10" height="10" x="155" y="15"/></g><g><rect width="10" height="10" x="155" y="45"/></g><g><rect width="10" height="10" x="155" y="55"/></g><g><rect width="10" height="10" x="155" y="75"/></g><g><rect width="10" height="10" x="155" y="85"/></g><g><rect width="10" height="10" x="155" y="95"/></g><g><rect width="10" height="10" x="155" y="115"/></g><g><rect width="10" height="10" x="155" y="145"/></g><g><rect width="10" height="10" x="155" y="155"/></g><g><rect width="10" height="10" x="155" y="195"/></g><g><rect width="10" height="10" x="155" y="215"/></g><g><rect width="10" height="10" x="155" y="275"/></g><g><rect width="10" height="10" x="155" y="285"/></g><g><rect width="10" height="10" x="155" y="295"/></g><g><rect width="10" height="10" x="165" y="25"/></g><g><rect width="10" height="10" x="165" y="45"/></g><g><rect width="10" height="10" x="165" y="65"/></g><g><rect width="10" height="10" x="165" y="85"/></g><g><rect width="10" height="10" x="165" y="95"/></g><g><rect width="10" height="10" x="165" y="125"/></g><g><rect width="10" height="10" x="165" y="145"/></g><g><rect width="10" height="10" x="165" y="185"/></g><g><rect width="10" height="10" x="165" y="195"/></g><g><rect width="10" height="10" x="165" y="265"/></g><g><rect width="10" height="10" x="175" y="15"/></g><g><rect width="10" height="10" x="175" y="25"/></g><g><rect width="10" height="10" x="175" y="35"/></g><g><rect width="10" height="10" x="175" y="55"/></g><g><rect width="10" height="10" x="175" y="75"/></g><g><rect width="10" height="10" x="175" y="95"/></g><g><rect width="10" height="10" x="175" y="135"/></g><g><rect width="10" height="10" x="175" y="155"/></g><g><rect width="10" height="10" x="175" y="215"/></g><g><rect width="10" height="10" x="175" y="275"/></g><g><rect width="10" height="10" x="175" y="285"/></g><g><rect width="10" height="10" x="185" y="25"/></g><g><rect width="10" height="10" x="185" y="45"/></g><g><rect width="10" height="10" x="185" y="65"/></g><g><rect width="10" height="10" x="185" y="85"/></g><g><rect width="10" height="10" x="185" y="115"/></g><g><rect width="10" height="10" x="185" y="135"/></g><g><rect width="10" height="10" x="185" y="165"/></g><g><rect width="10" height="10" x="185" y="185"/></g><g><rect width="10" height="10" x="185" y="205"/></g><g><rect width="10" height="10" x="185" y="225"/></g><g><rect width="10" height="10" x="185" y="235"/></g><g><rect width="10" height="10" x="185" y="245"/></g><g><rect width="10" height="10" x="185" y="265"/></g><g><rect width="10" height="10" x="185" y="275"/></g><g><rect width="10" height="10" x="185" y="285"/></g><g><rect width="10" height="10" x="185" y="295"/></g><g><rect width="10" height="10" x="195" y="15"/></g><g><rect width="10" height="10" x="195" y="55"/></g><g><rect width="10" height="10" x="195" y="75"/></g><g><rect width="10" height="10" x="195" y="85"/></g><g><rect width="10" height="10" x="195" y="95"/></g><g><rect width="10" height="10" x="195" y="135"/></g><g><rect width="10" height="10" x="195" y="145"/></g><g><rect width="10" height="10" x="195" y="155"/></g><g><rect width="10" height="10" x="195" y="195"/></g><g><rect width="10" height="10" x="195" y="225"/></g><g><rect width="10" height="10" x="195" y="255"/></g><g><rect width="10" height="10" x="195" y="265"/></g><g><rect width="10" height="10" x="195" y="295"/></g><g><rect width="10" height="10" x="205" y="15"/></g><g><rect width="10" height="10" x="205" y="25"/></g><g><rect width="10" height="10" x="205" y="35"/></g><g><rect width="10" height="10" x="205" y="45"/></g><g><rect width="10" height="10" x="205" y="55"/></g><g><rect width="10" height="10" x="205" y="65"/></g><g><rect width="10" height="10" x="205" y="105"/></g><g><rect width="10" height="10" x="205" y="115"/></g><g><rect width="10" height="10" x="205" y="145"/></g><g><rect width="10" height="10" x="205" y="155"/></g><g><rect width="10" height="10" x="205" y="185"/></g><g><rect width="10" height="10" x="205" y="225"/></g><g><rect width="10" height="10" x="205" y="235"/></g><g><rect width="10" height="10" x="205" y="265"/></g><g><rect width="10" height="10" x="205" y="275"/></g><g><rect width="10" height="10" x="205" y="285"/></g><g><rect width="10" height="10" x="205" y="295"/></g><g><rect width="10" height="10" x="215" y="15"/></g><g><rect width="10" height="10" x="215" y="45"/></g><g><rect width="10" height="10" x="215" y="55"/></g><g><rect width="10" height="10" x="215" y="65"/></g><g><rect width="10" height="10" x="215" y="75"/></g><g><rect width="10" height="10" x="215" y="185"/></g><g><rect width="10" height="10" x="215" y="195"/></g><g><rect width="10" height="10" x="215" y="205"/></g><g><rect width="10" height="10" x="215" y="215"/></g><g><rect width="10" height="10" x="215" y="225"/></g><g><rect width="10" height="10" x="215" y="235"/></g><g><rect width="10" height="10" x="215" y="245"/></g><g><rect width="10" height="10" x="215" y="255"/></g><g><rect width="10" height="10" x="215" y="265"/></g><g><rect width="10" height="10" x="215" y="275"/></g><g><rect width="10" height="10" x="215" y="285"/></g><g><rect width="10" height="10" x="215" y="295"/></g><g><rect width="10" height="10" x="225" y="95"/></g><g><rect width="10" height="10" x="225" y="125"/></g><g><rect width="10" height="10" x="225" y="155"/></g><g><rect width="10" height="10" x="225" y="175"/></g><g><rect width="10" height="10" x="225" y="185"/></g><g><rect width="10" height="10" x="225" y="195"/></g><g><rect width="10" height="10" x="225" y="215"/></g><g><rect width="10" height="10" x="225" y="255"/></g><g><rect width="10" height="10" x="225" y="285"/></g><g><rect width="10" height="10" x="235" y="15"/></g><g><rect width="10" height="10" x="235" y="25"/></g><g><rect width="10" height="10" x="235" y="35"/></g><g><rect width="10" height="10" x="235" y="45"/></g><g><rect width="10" height="10" x="235" y="55"/></g><g><rect width="10" height="10" x="235" y="65"/></g><g><rect width="10" height="10" x="235" y="75"/></g><g><rect width="10" height="10" x="235" y="95"/></g><g><rect width="10" height="10" x="235" y="115"/></g><g><rect width="10" height="10" x="235" y="125"/></g><g><rect width="10" height="10" x="235" y="135"/></g><g><rect width="10" height="10" x="235" y="155"/></g><g><rect width="10" height="10" x="235" y="165"/></g><g><rect width="10" height="10" x="235" y="195"/></g><g><rect width="10" height="10" x="235" y="205"/></g><g><rect width="10" height="10" x="235" y="215"/></g><g><rect width="10" height="10" x="235" y="235"/></g><g><rect width="10" height="10" x="235" y="255"/></g><g><rect width="10" height="10" x="235" y="275"/></g><g><rect width="10" height="10" x="235" y="295"/></g><g><rect width="10" height="10" x="245" y="15"/></g><g><rect width="10" height="10" x="245" y="75"/></g><g><rect width="10" height="10" x="245" y="105"/></g><g><rect width="10" height="10" x="245" y="165"/></g><g><rect width="10" height="10" x="245" y="185"/></g><g><rect width="10" height="10" x="245" y="195"/></g><g><rect width="10" height="10" x="245" y="205"/></g><g><rect width="10" height="10" x="245" y="215"/></g><g><rect width="10" height="10" x="245" y="255"/></g><g><rect width="10" height="10" x="245" y="295"/></g><g><rect width="10" height="10" x="255" y="15"/></g><g><rect width="10" height="10" x="255" y="35"/></g><g><rect width="10" height="10" x="255" y="45"/></g><g><rect width="10" height="10" x="255" y="55"/></g><g><rect width="10" height="10" x="255" y="75"/></g><g><rect width="10" height="10" x="255" y="105"/></g><g><rect width="10" height="10" x="255" y="115"/></g><g><rect width="10" height="10" x="255" y="135"/></g><g><rect width="10" height="10" x="255" y="205"/></g><g><rect width="10" height="10" x="255" y="215"/></g><g><rect width="10" height="10" x="255" y="225"/></g><g><rect width="10" height="10" x="255" y="235"/></g><g><rect width="10" height="10" x="255" y="245"/></g><g><rect width="10" height="10" x="255" y="255"/></g><g><rect width="10" height="10" x="255" y="265"/></g><g><rect width="10" height="10" x="255" y="275"/></g><g><rect width="10" height="10" x="255" y="295"/></g><g><rect width="10" height="10" x="265" y="15"/></g><g><rect width="10" height="10" x="265" y="35"/></g><g><rect width="10" height="10" x="265" y="45"/></g><g><rect width="10" height="10" x="265" y="55"/></g><g><rect width="10" height="10" x="265" y="75"/></g><g><rect width="10" height="10" x="265" y="105"/></g><g><rect width="10" height="10" x="265" y="135"/></g><g><rect width="10" height="10" x="265" y="145"/></g><g><rect width="10" height="10" x="265" y="165"/></g><g><rect width="10" height="10" x="265" y="205"/></g><g><rect width="10" height="10" x="265" y="215"/></g><g><rect width="10" height="10" x="265" y="245"/></g><g><rect width="10" height="10" x="265" y="265"/></g><g><rect width="10" height="10" x="275" y="15"/></g><g><rect width="10" height="10" x="275" y="35"/></g><g><rect width="10" height="10" x="275" y="45"/></g><g><rect width="10" height="10" x="275" y="55"/></g><g><rect width="10" height="10" x="275" y="75"/></g><g><rect width="10" height="10" x="275" y="95"/></g><g><rect width="10" height="10" x="275" y="115"/></g><g><rect width="10" height="10" x="275" y="145"/></g><g><rect width="10" height="10" x="275" y="165"/></g><g><rect width="10" height="10" x="275" y="185"/></g><g><rect width="10" height="10" x="275" y="195"/></g><g><rect width="10" height="10" x="275" y="215"/></g><g><rect width="10" height="10" x="275" y="225"/></g><g><rect width="10" height="10" x="275" y="255"/></g><g><rect width="10" height="10" x="275" y="275"/></g><g><rect width="10" height="10" x="275" y="285"/></g><g><rect width="10" height="10" x="285" y="15"/></g><g><rect width="10" height="10" x="285" y="75"/></g><g><rect width="10" height="10" x="285" y="105"/></g><g><rect width="10" height="10" x="285" y="125"/></g><g><rect width="10" height="10" x="285" y="135"/></g><g><rect width="10" height="10" x="285" y="165"/></g><g><rect width="10" height="10" x="285" y="195"/></g><g><rect width="10" height="10" x="285" y="205"/></g><g><rect width="10" height="10" x="285" y="265"/></g><g><rect width="10" height="10" x="285" y="285"/></g><g><rect width="10" height="10" x="285" y="295"/></g><g><rect width="10" height="10" x="295" y="15"/></g><g><rect width="10" height="10" x="295" y="25"/></g><g><rect width="10" height="10" x="295" y="35"/></g><g><rect width="10" height="10" x="295" y="45"/></g><g><rect width="10" height="10" x="295" y="55"/></g><g><rect width="10" height="10" x="295" y="65"/></g><g><rect width="10" height="10" x="295" y="75"/></g><g><rect width="10" height="10" x="295" y="105"/></g><g><rect width="10" height="10" x="295" y="115"/></g><g><rect width="10" height="10" x="295" y="125"/></g><g><rect width="10" height="10" x="295" y="135"/></g><g><rect width="10" height="10" x="295" y="145"/></g><g><rect width="10" height="10" x="295" y="155"/></g><g><rect width="10" height="10" x="295" y="185"/></g><g><rect width="10" height="10" x="295" y="195"/></g><g><rect width="10" height="10" x="295" y="215"/></g><g><rect width="10" height="10" x="295" y="225"/></g><g><rect width="10" height="10" x="295" y="235"/></g><g><rect width="10" height="10" x="295" y="245"/></g><g><rect width="10" height="10" x="295" y="255"/></g><g><rect width="10" height="10" x="295" y="275"/></g><g><rect width="10" height="10" x="295" y="295"/></g></g></svg>