<svg xmlns="http://www.w3.org/2000/svg" xmlns:xlink="http://www.w3.org/1999/xlink" id="layer" x="0" y="0" version="1.1" viewBox="0 0 340 340" xml:space="preserve" style="enable-background:new 0 0 340 340"><g><g><rect width="10" height="10" x="25" y="25"/></g><g><rect width="10" height="10" x="25" y="35"/></g><g><rect width="10" height="10" x="25" y="45"/></g><g><rect width="10" height="10" x="25" y="55"/></g><g><rect width="10" height="10" x="25" y="65"/></g><g><rect width="10" height="10" x="25" y="75"/></g><g><rect width="10" height="10" x="25" y="85"/></g><g><rect width="10" height="10" x="25" y="105"/></g><g><rect width="10" height="10" x="25" y="115"/></g><g><rect width="10" height="10" x="25" y="135"/></g><g><rect width="10" height="10" x="25" y="165"/></g><g><rect width="10" height="10" x="25" y="195"/></g><g><rect width="10" height="10" x="25" y="205"/></g><g><rect width="10" height="10" x="25" y="215"/></g><g><rect width="10" height="10" x="25" y="225"/></g><g><rect width="10" height="10" x="25" y="245"/></g><g><rect width="10" height="10" x="25" y="255"/></g><g><rect width="10" height="10" x="25" y="265"/></g><g><rect width="10" height="10" x="25" y="275"/></g><g><rect width="10" height="10" x="25" y="285"/></g><g><rect width="10" height="10" x="25" y="295"/></g><g><rect width="10" height="10" x="25" y="305"/></g><g><rect width="10" height="10" x="35" y="25"/></g><g><rect width="10" height="10" x="35" y="85"/></g><g><rect width="10" height="10" x="35" y="105"/></g><g><rect width="10" height="10" x="35" y="125"/></g><g><rect width="10" height="10" x="35" y="145"/></g><g><rect width="10" height="10" x="35" y="155"/></g><g><rect width="10" height="10" x="35" y="165"/></g><g><rect width="10" height="10" x="35" y="185"/></g><g><rect width="10" height="10" x="35" y="195"/></g><g><rect width="10" height="10" x="35" y="245"/></g><g><rect width="10" height="10" x="35" y="305"/></g><g><rect width="10" height="10" x="45" y="25"/></g><g><rect width="10" height="10" x="45" y="45"/></g><g><rect width="10" height="10" x="45" y="55"/></g><g><rect width="10" height="10" x="45" y="65"/></g><g><rect width="10" height="10" x="45" y="85"/></g><g><rect width="10" height="10" x="45" y="105"/></g><g><rect width="10" height="10" x="45" y="115"/></g><g><rect width="10" height="10" x="45" y="135"/></g><g><rect width="10" height="10" x="45" y="165"/></g><g><rect width="10" height="10" x="45" y="195"/></g><g><rect width="10" height="10" x="45" y="225"/></g><g><rect width="10" height="10" x="45" y="245"/></g><g><rect width="10" height="10" x="45" y="265"/></g><g><rect width="10" height="10" x="45" y="275"/></g><g><rect width="10" height="10" x="45" y="285"/></g><g><rect width="10" height="10" x="45" y="305"/></g><g><rect width="10" height="10" x="55" y="25"/></g><g><rect width="10" height="10" x="55" y="45"/></g><g><rect width="10" height="10" x="55" y="55"/></g><g><rect width="10" height="10" x="55" y="65"/></g><g><rect width="10" height="10" x="55" y="85"/></g><g><rect width="10" height="10" x="55" y="105"/></g><g><rect width="10" height="10" x="55" y="135"/></g><g><rect width="10" height="10" x="55" y="165"/></g><g><rect width="10" height="10" x="55" y="175"/></g><g><rect width="10" height="10" x="55" y="195"/></g><g><rect width="10" height="10" x="55" y="205"/></g><g><rect width="10" height="10" x="55" y="215"/></g><g><rect width="10" height="10" x="55" y="245"/></g><g><rect width="10" height="10" x="55" y="265"/></g><g><rect width="10" height="10" x="55" y="275"/></g><g><rect width="10" height="10" x="55" y="285"/></g><g><rect width="10" height="10" x="55" y="305"/></g><g><rect width="10" height="10" x="65" y="25"/></g><g><rect width="10" height="10" x="65" y="45"/></g><g><rect width="10" height="10" x="65" y="55"/></g><g><rect width="10" height="10" x="65" y="65"/></g><g><rect width="10" height="10" x="65" y="85"/></g><g><rect width="10" height="10" x="65" y="105"/></g><g><rect width="10" height="10" x="65" y="145"/></g><g><rect width="10" height="10" x="65" y="155"/></g><g><rect width="10" height="10" x="65" y="165"/></g><g><rect width="10" height="10" x="65" y="175"/></g><g><rect width="10" height="10" x="65" y="185"/></g><g><rect width="10" height="10" x="65" y="195"/></g><g><rect width="10" height="10" x="65" y="245"/></g><g><rect width="10" height="10" x="65" y="265"/></g><g><rect width="10" height="10" x="65" y="275"/></g><g><rect width="10" height="10" x="65" y="285"/></g><g><rect width="10" height="10" x="65" y="305"/></g><g><rect width="10" height="10" x="75" y="25"/></g><g><rect width="10" height="10" x="75" y="85"/></g><g><rect width="10" height="10" x="75" y="115"/></g><g><rect width="10" height="10" x="75" y="125"/></g><g><rect width="10" height="10" x="75" y="135"/></g><g><rect width="10" height="10" x="75" y="145"/></g><g><rect width="10" height="10" x="75" y="155"/></g><g><rect width="10" height="10" x="75" y="205"/></g><g><rect width="10" height="10" x="75" y="225"/></g><g><rect width="10" height="10" x="75" y="245"/></g><g><rect width="10" height="10" x="75" y="305"/></g><g><rect width="10" height="10" x="85" y="25"/></g><g><rect width="10" height="10" x="85" y="35"/></g><g><rect width="10" height="10" x="85" y="45"/></g><g><rect width="10" height="10" x="85" y="55"/></g><g><rect width="10" height="10" x="85" y="65"/></g><g><rect width="10" height="10" x="85" y="75"/></g><g><rect width="10" height="10" x="85" y="85"/></g><g><rect width="10" height="10" x="85" y="105"/></g><g><rect width="10" height="10" x="85" y="125"/></g><g><rect width="10" height="10" x="85" y="145"/></g><g><rect width="10" height="10" x="85" y="165"/></g><g><rect width="10" height="10" x="85" y="185"/></g><g><rect width="10" height="10" x="85" y="205"/></g><g><rect width="10" height="10" x="85" y="225"/></g><g><rect width="10" height="10" x="85" y="245"/></g><g><rect width="10" height="10" x="85" y="255"/></g><g><rect width="10" height="10" x="85" y="265"/></g><g><rect width="10" height="10" x="85" y="275"/></g><g><rect width="10" height="10" x="85" y="285"/></g><g><rect width="10" height="10" x="85" y="295"/></g><g><rect width="10" height="10" x="85" y="305"/></g><g><rect width="10" height="10" x="95" y="105"/></g><g><rect width="10" height="10" x="95" y="135"/></g><g><rect width="10" height="10" x="95" y="145"/></g><g><rect width="10" height="10" x="95" y="155"/></g><g><rect width="10" height="10" x="95" y="165"/></g><g><rect width="10" height="10" x="95" y="175"/></g><g><rect width="10" height="10" x="95" y="215"/></g><g><rect width="10" height="10" x="95" y="225"/></g><g><rect width="10" height="10" x="105" y="35"/></g><g><rect width="10" height="10" x="105" y="55"/></g><g><rect width="10" height="10" x="105" y="75"/></g><g><rect width="10" height="10" x="105" y="85"/></g><g><rect width="10" height="10" x="105" y="105"/></g><g><rect width="10" height="10" x="105" y="115"/></g><g><rect width="10" height="10" x="105" y="165"/></g><g><rect width="10" height="10" x="105" y="185"/></g><g><rect width="10" height="10" x="105" y="215"/></g><g><rect width="10" height="10" x="105" y="225"/></g><g><rect width="10" height="10" x="105" y="235"/></g><g><rect width="10" height="10" x="105" y="245"/></g><g><rect width="10" height="10" x="105" y="265"/></g><g><rect width="10" height="10" x="105" y="275"/></g><g><rect width="10" height="10" x="105" y="285"/></g><g><rect width="10" height="10" x="105" y="295"/></g><g><rect width="10" height="10" x="105" y="305"/></g><g><rect width="10" height="10" x="115" y="55"/></g><g><rect width="10" height="10" x="115" y="65"/></g><g><rect width="10" height="10" x="115" y="75"/></g><g><rect width="10" height="10" x="115" y="95"/></g><g><rect width="10" height="10" x="115" y="105"/></g><g><rect width="10" height="10" x="115" y="145"/></g><g><rect width="10" height="10" x="115" y="155"/></g><g><rect width="10" height="10" x="115" y="165"/></g><g><rect width="10" height="10" x="115" y="185"/></g><g><rect width="10" height="10" x="115" y="205"/></g><g><rect width="10" height="10" x="115" y="225"/></g><g><rect width="10" height="10" x="115" y="275"/></g><g><rect width="10" height="10" x="115" y="285"/></g><g><rect width="10" height="10" x="115" y="295"/></g><g><rect width="10" height="10" x="125" y="25"/></g><g><rect width="10" height="10" x="125" y="35"/></g><g><rect width="10" height="10" x="125" y="55"/></g><g><rect width="10" height="10" x="125" y="85"/></g><g><rect width="10" height="10" x="125" y="95"/></g><g><rect width="10" height="10" x="125" y="115"/></g><g><rect width="10" height="10" x="125" y="125"/></g><g><rect width="10" height="10" x="125" y="145"/></g><g><rect width="10" height="10" x="125" y="165"/></g><g><rect width="10" height="10" x="125" y="185"/></g><g><rect width="10" height="10" x="125" y="195"/></g><g><rect width="10" height="10" x="125" y="215"/></g><g><rect width="10" height="10" x="125" y="225"/></g><g><rect width="10" height="10" x="125" y="255"/></g><g><rect width="10" height="10" x="125" y="265"/></g><g><rect width="10" height="10" x="125" y="275"/></g><g><rect width="10" height="10" x="125" y="295"/></g><g><rect width="10" height="10" x="125" y="305"/></g><g><rect width="10" height="10" x="135" y="75"/></g><g><rect width="10" height="10" x="135" y="95"/></g><g><rect width="10" height="10" x="135" y="105"/></g><g><rect width="10" height="10" x="135" y="165"/></g><g><rect width="10" height="10" x="135" y="175"/></g><g><rect width="10" height="10" x="135" y="185"/></g><g><rect width="10" height="10" x="135" y="245"/></g><g><rect width="10" height="10" x="135" y="255"/></g><g><rect width="10" height="10" x="135" y="265"/></g><g><rect width="10" height="10" x="145" y="25"/></g><g><rect width="10" height="10" x="145" y="45"/></g><g><rect width="10" height="10" x="145" y="55"/></g><g><rect width="10" height="10" x="145" y="75"/></g><g><rect width="10" height="10" x="145" y="85"/></g><g><rect width="10" height="10" x="145" y="115"/></g><g><rect width="10" height="10" x="145" y="135"/></g><g><rect width="10" height="10" x="145" y="145"/></g><g><rect width="10" height="10" x="145" y="165"/></g><g><rect width="10" height="10" x="145" y="195"/></g><g><rect width="10" height="10" x="145" y="215"/></g><g><rect width="10" height="10" x="145" y="225"/></g><g><rect width="10" height="10" x="145" y="245"/></g><g><rect width="10" height="10" x="145" y="275"/></g><g><rect width="10" height="10" x="145" y="295"/></g><g><rect width="10" height="10" x="145" y="305"/></g><g><rect width="10" height="10" x="155" y="45"/></g><g><rect width="10" height="10" x="155" y="55"/></g><g><rect width="10" height="10" x="155" y="135"/></g><g><rect width="10" height="10" x="155" y="175"/></g><g><rect width="10" height="10" x="155" y="195"/></g><g><rect width="10" height="10" x="155" y="275"/></g><g><rect width="10" height="10" x="155" y="285"/></g><g><rect width="10" height="10" x="155" y="295"/></g><g><rect width="10" height="10" x="165" y="35"/></g><g><rect width="10" height="10" x="165" y="45"/></g><g><rect width="10" height="10" x="165" y="75"/></g><g><rect width="10" height="10" x="165" y="85"/></g><g><rect width="10" height="10" x="165" y="95"/></g><g><rect width="10" height="10" x="165" y="155"/></g><g><rect width="10" height="10" x="165" y="175"/></g><g><rect width="10" height="10" x="165" y="195"/></g><g><rect width="10" height="10" x="165" y="215"/></g><g><rect width="10" height="10" x="165" y="225"/></g><g><rect width="10" height="10" x="165" y="285"/></g><g><rect width="10" height="10" x="165" y="305"/></g><g><rect width="10" height="10" x="175" y="25"/></g><g><rect width="10" height="10" x="175" y="55"/></g><g><rect width="10" height="10" x="175" y="65"/></g><g><rect width="10" height="10" x="175" y="95"/></g><g><rect width="10" height="10" x="175" y="115"/></g><g><rect width="10" height="10" x="175" y="125"/></g><g><rect width="10" height="10" x="175" y="135"/></g><g><rect width="10" height="10" x="175" y="145"/></g><g><rect width="10" height="10" x="175" y="155"/></g><g><rect width="10" height="10" x="175" y="165"/></g><g><rect width="10" height="10" x="175" y="175"/></g><g><rect width="10" height="10" x="175" y="185"/></g><g><rect width="10" height="10" x="175" y="205"/></g><g><rect width="10" height="10" x="175" y="215"/></g><g><rect width="10" height="10" x="175" y="225"/></g><g><rect width="10" height="10" x="175" y="235"/></g><g><rect width="10" height="10" x="175" y="245"/></g><g><rect width="10" height="10" x="175" y="265"/></g><g><rect width="10" height="10" x="175" y="275"/></g><g><rect width="10" height="10" x="175" y="285"/></g><g><rect width="10" height="10" x="175" y="295"/></g><g><rect width="10" height="10" x="175" y="305"/></g><g><rect width="10" height="10" x="185" y="35"/></g><g><rect width="10" height="10" x="185" y="55"/></g><g><rect width="10" height="10" x="185" y="65"/></g><g><rect width="10" height="10" x="185" y="75"/></g><g><rect width="10" height="10" x="185" y="85"/></g><g><rect width="10" height="10" x="185" y="95"/></g><g><rect width="10" height="10" x="185" y="105"/></g><g><rect width="10" height="10" x="185" y="145"/></g><g><rect width="10" height="10" x="185" y="165"/></g><g><rect width="10" height="10" x="185" y="175"/></g><g><rect width="10" height="10" x="185" y="195"/></g><g><rect width="10" height="10" x="185" y="215"/></g><g><rect width="10" height="10" x="185" y="235"/></g><g><rect width="10" height="10" x="185" y="255"/></g><g><rect width="10" height="10" x="185" y="275"/></g><g><rect width="10" height="10" x="185" y="305"/></g><g><rect width="10" height="10" x="195" y="35"/></g><g><rect width="10" height="10" x="195" y="55"/></g><g><rect width="10" height="10" x="195" y="75"/></g><g><rect width="10" height="10" x="195" y="105"/></g><g><rect width="10" height="10" x="195" y="125"/></g><g><rect width="10" height="10" x="195" y="145"/></g><g><rect width="10" height="10" x="195" y="165"/></g><g><rect width="10" height="10" x="195" y="185"/></g><g><rect width="10" height="10" x="195" y="225"/></g><g><rect width="10" height="10" x="195" y="265"/></g><g><rect width="10" height="10" x="195" y="305"/></g><g><rect width="10" height="10" x="205" y="25"/></g><g><rect width="10" height="10" x="205" y="35"/></g><g><rect width="10" height="10" x="205" y="45"/></g><g><rect width="10" height="10" x="205" y="55"/></g><g><rect width="10" height="10" x="205" y="75"/></g><g><rect width="10" height="10" x="205" y="85"/></g><g><rect width="10" height="10" x="205" y="105"/></g><g><rect width="10" height="10" x="205" y="135"/></g><g><rect width="10" height="10" x="205" y="145"/></g><g><rect width="10" height="10" x="205" y="165"/></g><g><rect width="10" height="10" x="205" y="195"/></g><g><rect width="10" height="10" x="205" y="215"/></g><g><rect width="10" height="10" x="205" y="225"/></g><g><rect width="10" height="10" x="205" y="245"/></g><g><rect width="10" height="10" x="205" y="275"/></g><g><rect width="10" height="10" x="205" y="305"/></g><g><rect width="10" height="10" x="215" y="45"/></g><g><rect width="10" height="10" x="215" y="65"/></g><g><rect width="10" height="10" x="215" y="95"/></g><g><rect width="10" height="10" x="215" y="115"/></g><g><rect width="10" height="10" x="215" y="135"/></g><g><rect width="10" height="10" x="215" y="155"/></g><g><rect width="10" height="10" x="215" y="195"/></g><g><rect width="10" height="10" x="215" y="215"/></g><g><rect width="10" height="10" x="215" y="235"/></g><g><rect width="10" height="10" x="215" y="245"/></g><g><rect width="10" height="10" x="215" y="285"/></g><g><rect width="10" height="10" x="215" y="295"/></g><g><rect width="10" height="10" x="225" y="25"/></g><g><rect width="10" height="10" x="225" y="45"/></g><g><rect width="10" height="10" x="225" y="55"/></g><g><rect width="10" height="10" x="225" y="75"/></g><g><rect width="10" height="10" x="225" y="85"/></g><g><rect width="10" height="10" x="225" y="95"/></g><g><rect width="10" height="10" x="225" y="105"/></g><g><rect width="10" height="10" x="225" y="135"/></g><g><rect width="10" height="10" x="225" y="145"/></g><g><rect width="10" height="10" x="225" y="165"/></g><g><rect width="10" height="10" x="225" y="195"/></g><g><rect width="10" height="10" x="225" y="205"/></g><g><rect width="10" height="10" x="225" y="225"/></g><g><rect width="10" height="10" x="225" y="235"/></g><g><rect width="10" height="10" x="225" y="245"/></g><g><rect width="10" height="10" x="225" y="255"/></g><g><rect width="10" height="10" x="225" y="265"/></g><g><rect width="10" height="10" x="225" y="275"/></g><g><rect width="10" height="10" x="225" y="295"/></g><g><rect width="10" height="10" x="235" y="105"/></g><g><rect width="10" height="10" x="235" y="115"/></g><g><rect width="10" height="10" x="235" y="145"/></g><g><rect width="10" height="10" x="235" y="165"/></g><g><rect width="10" height="10" x="235" y="185"/></g><g><rect width="10" height="10" x="235" y="205"/></g><g><rect width="10" height="10" x="235" y="215"/></g><g><rect width="10" height="10" x="235" y="225"/></g><g><rect width="10" height="10" x="235" y="265"/></g><g><rect width="10" height="10" x="235" y="285"/></g><g><rect width="10" height="10" x="235" y="305"/></g><g><rect width="10" height="10" x="245" y="25"/></g><g><rect width="10" height="10" x="245" y="35"/></g><g><rect width="10" height="10" x="245" y="45"/></g><g><rect width="10" height="10" x="245" y="55"/></g><g><rect width="10" height="10" x="245" y="65"/></g><g><rect width="10" height="10" x="245" y="75"/></g><g><rect width="10" height="10" x="245" y="85"/></g><g><rect width="10" height="10" x="245" y="115"/></g><g><rect width="10" height="10" x="245" y="155"/></g><g><rect width="10" height="10" x="245" y="165"/></g><g><rect width="10" height="10" x="245" y="195"/></g><g><rect width="10" height="10" x="245" y="215"/></g><g><rect width="10" height="10" x="245" y="225"/></g><g><rect width="10" height="10" x="245" y="245"/></g><g><rect width="10" height="10" x="245" y="265"/></g><g><rect width="10" height="10" x="245" y="285"/></g><g><rect width="10" height="10" x="255" y="25"/></g><g><rect width="10" height="10" x="255" y="85"/></g><g><rect width="10" height="10" x="255" y="105"/></g><g><rect width="10" height="10" x="255" y="115"/></g><g><rect width="10" height="10" x="255" y="125"/></g><g><rect width="10" height="10" x="255" y="145"/></g><g><rect width="10" height="10" x="255" y="165"/></g><g><rect width="10" height="10" x="255" y="175"/></g><g><rect width="10" height="10" x="255" y="185"/></g><g><rect width="10" height="10" x="255" y="215"/></g><g><rect width="10" height="10" x="255" y="225"/></g><g><rect width="10" height="10" x="255" y="265"/></g><g><rect width="10" height="10" x="255" y="275"/></g><g><rect width="10" height="10" x="255" y="295"/></g><g><rect width="10" height="10" x="255" y="305"/></g><g><rect width="10" height="10" x="265" y="25"/></g><g><rect width="10" height="10" x="265" y="45"/></g><g><rect width="10" height="10" x="265" y="55"/></g><g><rect width="10" height="10" x="265" y="65"/></g><g><rect width="10" height="10" x="265" y="85"/></g><g><rect width="10" height="10" x="265" y="115"/></g><g><rect width="10" height="10" x="265" y="135"/></g><g><rect width="10" height="10" x="265" y="155"/></g><g><rect width="10" height="10" x="265" y="175"/></g><g><rect width="10" height="10" x="265" y="195"/></g><g><rect width="10" height="10" x="265" y="205"/></g><g><rect width="10" height="10" x="265" y="215"/></g><g><rect width="10" height="10" x="265" y="225"/></g><g><rect width="10" height="10" x="265" y="235"/></g><g><rect width="10" height="10" x="265" y="245"/></g><g><rect width="10" height="10" x="265" y="255"/></g><g><rect width="10" height="10" x="265" y="265"/></g><g><rect width="10" height="10" x="265" y="285"/></g><g><rect width="10" height="10" x="265" y="295"/></g><g><rect width="10" height="10" x="265" y="305"/></g><g><rect width="10" height="10" x="275" y="25"/></g><g><rect width="10" height="10" x="275" y="45"/></g><g><rect width="10" height="10" x="275" y="55"/></g><g><rect width="10" height="10" x="275" y="65"/></g><g><rect width="10" height="10" x="275" y="85"/></g><g><rect width="10" height="10" x="275" y="105"/></g><g><rect width="10" height="10" x="275" y="125"/></g><g><rect width="10" height="10" x="275" y="135"/></g><g><rect width="10" height="10" x="275" y="155"/></g><g><rect width="10" height="10" x="275" y="185"/></g><g><rect width="10" height="10" x="275" y="195"/></g><g><rect width="10" height="10" x="275" y="215"/></g><g><rect width="10" height="10" x="275" y="245"/></g><g><rect width="10" height="10" x="275" y="265"/></g><g><rect width="10" height="10" x="275" y="295"/></g><g><rect width="10" height="10" x="285" y="25"/></g><g><rect width="10" height="10" x="285" y="45"/></g><g><rect width="10" height="10" x="285" y="55"/></g><g><rect width="10" height="10" x="285" y="65"/></g><g><rect width="10" height="10" x="285" y="85"/></g><g><rect width="10" height="10" x="285" y="145"/></g><g><rect width="10" height="10" x="285" y="185"/></g><g><rect width="10" height="10" x="285" y="205"/></g><g><rect width="10" height="10" x="285" y="265"/></g><g><rect width="10" height="10" x="285" y="285"/></g><g><rect width="10" height="10" x="285" y="305"/></g><g><rect width="10" height="10" x="295" y="25"/></g><g><rect width="10" height="10" x="295" y="85"/></g><g><rect width="10" height="10" x="295" y="105"/></g><g><rect width="10" height="10" x="295" y="125"/></g><g><rect width="10" height="10" x="295" y="165"/></g><g><rect width="10" height="10" x="295" y="175"/></g><g><rect width="10" height="10" x="295" y="185"/></g><g><rect width="10" height="10" x="295" y="215"/></g><g><rect width="10" height="10" x="295" y="225"/></g><g><rect width="10" height="10" x="295" y="245"/></g><g><rect width="10" height="10" x="295" y="265"/></g><g><rect width="10" height="10" x="295" y="275"/></g><g><rect width="10" height="10" x="295" y="285"/></g><g><rect width="10" height="10" x="295" y="295"/></g><g><rect width="10" height="10" x="305" y="25"/></g><g><rect width="10" height="10" x="305" y="35"/></g><g><rect width="10" height="10" x="305" y="45"/></g><g><rect width="10" height="10" x="305" y="55"/></g><g><rect width="10" height="10" x="305" y="65"/></g><g><rect width="10" height="10" x="305" y="75"/></g><g><rect width="10" height="10" x="305" y="85"/></g><g><rect width="10" height="10" x="305" y="115"/></g><g><rect width="10" height="10" x="305" y="135"/></g><g><rect width="10" height="10" x="305" y="155"/></g><g><rect width="10" height="10" x="305" y="185"/></g><g><rect width="10" height="10" x="305" y="195"/></g><g><rect width="10" height="10" x="305" y="235"/></g><g><rect width="10" height="10" x="305" y="275"/></g></g></svg>